<svg width="1200pt" height="1200pt" version="1.1" viewBox="0 0 1200 1200" xmlns="http://www.w3.org/2000/svg">
 <path d="m599.98 125.55c-261.61 0-474.46 212.83-474.46 474.45s212.83 474.45 474.45 474.45c261.61 0 474.44-212.83 474.44-474.45s-212.83-474.45-474.43-474.45zm310.13 280.71 7.6328 16.309c0.35938 0.76953 0.16797 1.4531 0.011719 1.7773-0.15625 0.33594-0.53906 0.9375-1.3555 1.1641l-3.3945 0.94922c-0.66016 0.16797-1.3672 0.023437-1.9062-0.39453l-20.027-16.273c-3.707-3-8.6172-3.9609-13.199-2.4961l-26.891 8.5547c-3.3477 1.0547-6.1797 3.3242-7.957 6.3828l-13.309 22.992c-0.34766 0.60156-0.97266 0.99609-1.6797 1.043l-29.508 2.1133c-0.78125 0-1.4141-0.37109-1.668-0.63672-0.25391-0.26562-0.67188-0.82812-0.58984-1.6797l3.0977-33.121c0.097657-1.043 0.9375-1.8594 1.9805-1.9219l34.453-2.2188c6.6953-0.43359 12.203-5.5664 13.094-12.227l2.3281-15.551 39-53.449c0.27734-0.37109 0.64844-0.63672 1.0938-0.76953l27.875-8.2812 31.512-0.73047c32.977 40.895 58.906 87.648 76.055 138.45l-1.2109-0.19141c-0.71875-0.12109-1.3203-0.58984-1.6094-1.2461l-10.297-24.023c-2.0156-4.7148-6.457-7.9688-11.578-8.4961l-2.2578-0.22656c-3.8867-0.40625-7.6797 0.82812-10.586 3.3125-2.9141 2.4961-4.7148 6.1211-4.9219 9.9492l-0.64844 11.734c-0.058593 1.1289-0.99609 2.0039-2.125 2.0039h-4.9805c-0.71875 0-1.3672-0.35938-1.7656-0.96094l-36.77-55.836c-2.8203-4.2969-7.6797-6.7578-12.898-6.3242l-3.2891 0.25391c-4.6211 0.35938-8.7734 2.9766-11.102 6.9727-2.3281 3.9883-2.5781 8.8945-0.60938 13.098zm-24.672-154.43c6.5742 5.3984 12.973 11.004 19.234 16.766l-17.953 2.5312c-0.91016 0.13281-1.4648-0.28906-1.7383-0.53906-0.27734-0.25391-0.73047-0.81641-0.67187-1.6914zm-445.99-27.504c0.25391 1.0312-0.26562 1.7266-0.60156 2.0391-0.33594 0.3125-1.0312 0.78125-2.0742 0.50391l-48.996-14.594c-0.88672-0.26562-1.2461-0.92578-1.3906-1.2852-0.13281-0.37109-0.30078-1.1055 0.19141-1.8711l5.2305-8.3633c12.227-6.3945 24.77-12.277 37.609-17.555zm-63.336 243.9c-0.76953 2.2578-7.9336 10.945-29.832 29.27-3.0117 2.5195-4.8477 6.2266-5.0273 10.152-0.17969 3.9609 1.332 7.8242 4.1406 10.633l8.2578 9.1445-1.9688 0.32422-18.805-18.805c-2.6289-2.6289-6.2656-4.1406-9.9844-4.1406h-67.512c-7.7891 0-14.125 6.3359-14.125 14.125v62.746c0 7.7891 6.3359 14.125 14.125 14.125h18.238c1.7773 0 3.5039-0.32422 5.125-0.97266l23.438-9.1445c0.99609-0.40625 2.1719 0.035156 2.6641 1.0195l29.293 58.586c2.4102 4.8125 7.2461 7.8125 12.637 7.8125h112.43c0.5625 0 1.1055 0.22656 1.5 0.625l28.309 28.309c2.1016 2.1016 4.7539 3.4688 7.668 3.9492l27.816 4.6328c1.0195 0.16797 1.7773 1.0547 1.7773 2.1016v16.754c0 6.0352 3.8398 11.398 9.5391 13.355l48.445 16.598 41.363 16.547c0.80469 0.3125 1.332 1.1055 1.332 1.9688v12.215c0 0.64844-0.30078 1.2734-0.82812 1.6797l-22.465 17.473c-2.543 1.9805-4.3555 4.8125-5.0898 7.957l-13.715 58.957c-0.17969 0.78125-0.78125 1.3789-1.5469 1.5859l-22.164 5.5312c-4.3555 1.0938-7.9688 4.2344-9.6602 8.4102l-27.73 68.195-78.938 82.957c-15.395-5.6641-30.359-12.227-44.93-19.488l22.535-87.383c0.28906-1.1523 0.44531-2.3398 0.44531-3.5273v-84.66c0-3.7695-1.4766-7.3203-4.1406-9.9961l-62.617-62.617c-0.39453-0.39453-0.625-0.9375-0.625-1.5l0.13281-37.738 15.551-41.879c1.6094-4.332 0.99609-9.1914-1.6445-12.984-2.6406-3.793-6.9727-6.0586-11.594-6.0586h-22.117c-0.55078 0-1.1055-0.22656-1.5-0.625l-47.891-48.238c-2.6641-2.6992-6.2266-4.1875-10.031-4.1875l-28.465-0.015625c-0.5625 0-1.1055-0.22656-1.5-0.625l-88.379-88.379c16.824-85.633 58.02-162.57 116-223.44l65.387 27.852c1.7656 0.74219 3.625 1.1289 5.5312 1.1289h18.098c7.7891 0 14.125-6.3359 14.125-14.125v-48.613c0-0.86328 0.49219-1.4023 0.76953-1.6328 0.28906-0.23828 0.92578-0.58984 1.7539-0.44531l66.539 13.043c0.46875 0.085937 0.89844 0.33594 1.2109 0.69531l45.574 53.16 20.426 57.434c0.32422 0.89844-0.023438 1.5977-0.26563 1.9336-0.23828 0.33594-0.78125 0.89844-1.7383 0.89844h-76.512c-3.707 0-7.3438 1.5-9.9961 4.1406l-44.789 44.812c-2.6289 2.6172-4.1406 6.2656-4.1406 9.9961zm-226.59 131.77c0-24.719 2.0898-48.949 5.9297-72.602l82.477 82.465c2.6641 2.6641 6.2148 4.1406 9.9844 4.1406h28.488c0.5625 0 1.1055 0.22656 1.5 0.625l47.902 48.254c2.6406 2.6523 6.2891 4.1758 10.02 4.1758h22.117c0.97266 0 1.5 0.5625 1.7383 0.91016 0.23828 0.33594 0.58984 1.043 0.25391 1.957l-15.551 41.867c-0.58984 1.5859-0.88672 3.2383-0.88672 4.9336v36.996c0 3.7695 1.4766 7.3203 4.1406 9.9844l62.617 62.617c0.39453 0.39453 0.625 0.94922 0.625 1.5l-0.070312 85.199-21.863 84.77c-142.29-75.797-239.42-225.63-239.42-397.79zm450.46 450.45c-49.859 0-97.789-8.2695-142.66-23.293l75.109-78.938c1.2461-1.2969 2.2188-2.7969 2.8789-4.4648l27.301-67.523c0.25391-0.63672 0.80469-1.1172 1.4531-1.2734l22.152-5.5312c5.1719-1.2852 9.1211-5.3047 10.332-10.5l13.715-58.969c0.10938-0.48047 0.38281-0.89844 0.76953-1.1992l22.465-17.473c3.4219-2.6523 5.4727-6.8164 5.4727-11.148v-12.215c0-5.8086-3.4922-10.957-8.8789-13.117l-41.641-16.656-48.719-16.703c-0.86328-0.28906-1.4414-1.0938-1.4414-2.0039v-16.754c0-6.9258-4.957-12.781-11.797-13.934l-27.828-4.6328c-0.43359-0.070313-0.82812-0.27734-1.1406-0.58984l-28.309-28.309c-2.6641-2.6641-6.2148-4.1406-9.9844-4.1406h-112.43c-0.80469 0-1.5352-0.45703-1.8945-1.1758l-29.293-58.586c-3.2773-6.5625-10.906-9.5156-17.762-6.8398l-24.191 9.2891h-18.238c-1.1758 0-2.125-0.94922-2.125-2.125v-62.746c0-1.1758 0.94922-2.125 2.125-2.125h67.512c0.55078 0 1.1055 0.22656 1.5 0.625l18.805 18.805c5.8672 5.8672 18.059 4.1758 21.527-4.2227 2.0156-4.8711 0.91016-10.441-2.8203-14.172l-8.0391-8.0391c-0.58984-0.58984-0.64844-1.2617-0.63672-1.6094 0.011719-0.40625 0.16797-0.99609 0.74219-1.4883 34.043-28.477 34.043-34.488 34.043-37.715v-29.16c0-0.55078 0.22656-1.1055 0.625-1.5l44.797-44.809c0.39453-0.39453 0.94922-0.625 1.5117-0.625h76.512c4.5859 0 8.9023-2.2422 11.531-5.9883 2.6406-3.7422 3.3008-8.5547 1.7656-12.863l-20.426-57.422c-0.58984-1.668-1.4766-3.1797-2.6055-4.4883l-45.191-52.488c-2.0508-2.3867-4.8828-4.0312-7.9922-4.6445l-66.551-13.043c-4.1055-0.79297-8.4102 0.26562-11.688 2.9531-3.2773 2.6992-5.1484 6.6719-5.1484 10.906v48.613c0 1.1758-0.94922 2.125-2.125 2.125l-18.938-0.16797-61.141-26.051c27.254-27.023 57.961-50.52 91.344-69.938 0.023437 1.6211 0.23828 3.2383 0.82812 4.8125 1.5703 4.1641 4.9219 7.2734 9.1914 8.543l48.996 14.594c1.3672 0.40625 2.7461 0.60156 4.1055 0.60156 3.5508 0 6.9844-1.3438 9.6719-3.8984 3.7188-3.5273 5.207-8.6055 3.9961-13.586l-10.43-42.73c49.559-18.805 103.23-29.184 159.3-29.184 103.02 0 198.01 34.848 273.98 93.266l-1.6328 25.309c-0.27734 4.2461 1.3555 8.3633 4.5 11.27 3.1328 2.9023 7.3203 4.2344 11.566 3.625l19.188-2.7109c0.67188-0.13281 1.2617 0.10937 1.7383 0.53906l9.5391 8.8672c2.6758 2.4961 6.1328 3.7812 9.6133 3.7812 0.34766 0 0.69531-0.10938 1.043-0.13281 3.8516 4.1289 7.5977 8.3633 11.293 12.637l-21.938 0.50391c-1.2617 0.035156-2.5195 0.23828-3.7188 0.60156l-27.312 8.1953c-2.9414 0.88672-5.5547 2.7344-7.3438 5.207l-38.988 53.426c-1.3789 1.8828-2.2812 4.1172-2.6055 6.4688l-1.9453 14.578c-0.13281 0.99609-0.96094 1.7773-1.9688 1.8359l-34.453 2.2188c-6.9727 0.45703-12.504 5.8203-13.152 12.77l-3.1094 33.121c-0.38281 4.1406 1.0547 8.2188 3.9727 11.195 2.9141 2.9766 6.9609 4.5703 11.102 4.2109l29.496-2.1016c4.6797-0.32422 8.8789-2.9531 11.23-7.0078l13.309-22.98c0.26562-0.46875 0.68359-0.80469 1.1992-0.96094l26.902-8.5547c0.68359-0.23828 1.4297-0.085937 1.9922 0.37109l20.027 16.262c3.5391 2.8906 8.2578 3.8633 12.695 2.6523l3.3945-0.94922c4.0078-1.1172 7.3086-3.9375 9.0352-7.7148 1.7383-3.7812 1.7148-8.1016-0.046876-11.867l-7.6328-16.309c-0.40625-0.875-0.12109-1.6094 0.085938-1.9688 0.20312-0.35938 0.70703-0.97266 1.668-1.043l3.2773-0.25391c0.74219-0.10938 1.5117 0.28906 1.9453 0.94922l36.781 55.848c2.6172 3.9844 7.0195 6.3594 11.785 6.3594h4.9805c7.4883 0 13.68-5.8555 14.102-13.344l0.64844-11.734c0.046874-0.78125 0.49219-1.2734 0.74219-1.5 0.25391-0.22656 0.85156-0.57422 1.5977-0.50391l2.2578 0.22656c0.76953 0.070313 1.4531 0.5625 1.7539 1.2734l10.297 24.023c1.9219 4.4648 5.9141 7.5977 10.715 8.375l7.332 1.1875c2.3984 7.8711 4.5469 15.852 6.5156 23.902l-47.785-4.8711c-3.3359-0.32422-6.707 0.53906-9.4688 2.4492l-13.922 9.6367c-0.60156 0.42187-1.3789 0.50391-2.0625 0.17969l-48.098-21.516c-0.51563-0.23828-0.9375-0.67188-1.1289-1.1992l-4.5977-12.266c-2.3516-6.2773-8.8789-10.043-15.48-9l-84.539 13.633c-5.2812 0.85156-9.5742 4.5352-11.207 9.6367l-10.789 32.953-38.051 38.051c-2.6641 2.6641-4.1406 6.2148-4.1406 9.9844v58.789c0 3.2383 1.1289 6.4219 3.1797 8.9297l43.754 53.629c2.6875 3.3008 6.6836 5.1953 10.945 5.1953h91.441c1.043 0 1.9336 0.75781 2.1016 1.7891l6.7578 42.551c0.3125 1.957 1.043 3.8633 2.1367 5.5078l19.031 29.039c0.22656 0.34766 0.34766 0.74219 0.34766 1.1641v34.488c0 0.5625-0.22656 1.1055-0.625 1.5l-13.367 13.367c-2.6758 2.6641-4.1406 6.2148-4.1406 9.9961s1.4766 7.3203 4.1406 9.9844l26.723 26.734c0.39453 0.39453 0.625 0.94922 0.625 1.5v31.008c-82.637 94.691-204.04 154.67-339.26 154.67zm351.25-168.93v-16.703c0-3.7188-1.5-7.3555-4.1406-9.9844l-26.734-26.734c-0.53906-0.53906-0.61328-1.1641-0.61328-1.5 0-0.33594 0.070313-0.96094 0.625-1.5l13.367-13.379c2.6641-2.6641 4.1406-6.2148 4.1406-9.9844v-34.488c0-2.7617-0.79297-5.4375-2.3047-7.7383l-19.355-29.879-6.7578-42.527c-1.0938-6.9102-6.9609-11.914-13.957-11.914h-91.441c-0.63672 0-1.2344-0.27734-1.6445-0.78125l-43.754-53.629c-0.3125-0.38281-0.48047-0.85156-0.48047-1.3438l0.007813-58.793c0-0.5625 0.22656-1.1055 0.625-1.5l38.051-38.051c1.5859-1.5859 2.7852-3.5508 3.4688-5.6875l10.273-32.102c0.25391-0.76953 0.88672-1.3203 1.6914-1.4531l84.539-13.633c0.99609-0.17969 1.9688 0.40625 2.3281 1.3555l4.5977 12.266c1.3086 3.5039 4.0312 6.4062 7.4648 7.9453l48.098 21.516c4.5 2.0273 9.7812 1.5234 13.812-1.2734l13.922-9.6367c0.40625-0.28906 0.89844-0.43359 1.4141-0.35938l51.852 5.293c6.5625 30.539 10.094 62.195 10.094 94.668-0.007812 106.48-37.207 204.36-99.188 281.53z"/>
</svg>